<svg width="400" height="225" viewBox="0 0 400 225" fill="none" xmlns="http://www.w3.org/2000/svg">
  <rect width="400" height="225" rx="8" fill="#0ea5e9" fill-opacity="0.1"/>
  <rect width="400" height="225" rx="8" fill="url(#paint0_linear)" fill-opacity="0.8"/>
  
  <!-- Data visualization elements -->
  <rect x="120" y="70" width="20" height="80" rx="2" fill="white" fill-opacity="0.7"/>
  <rect x="150" y="100" width="20" height="50" rx="2" fill="white" fill-opacity="0.7"/>
  <rect x="180" y="60" width="20" height="90" rx="2" fill="white" fill-opacity="0.7"/>
  <rect x="210" y="90" width="20" height="60" rx="2" fill="white" fill-opacity="0.7"/>
  <rect x="240" y="50" width="20" height="100" rx="2" fill="white" fill-opacity="0.7"/>
  <rect x="270" y="110" width="20" height="40" rx="2" fill="white" fill-opacity="0.7"/>
  
  <!-- Line chart -->
  <path d="M120 150C130 130 160 140 180 120C200 100 230 110 250 90C270 70 270 90 280 80" stroke="white" stroke-width="3" stroke-linecap="round"/>
  
  <!-- Data points -->
  <circle cx="120" cy="150" r="4" fill="#f97316"/>
  <circle cx="150" cy="130" r="4" fill="#f97316"/>
  <circle cx="180" cy="120" r="4" fill="#f97316"/>
  <circle cx="210" cy="110" r="4" fill="#f97316"/>
  <circle cx="240" cy="90" r="4" fill="#f97316"/>
  <circle cx="270" cy="80" r="4" fill="#f97316"/>
  
  <!-- Title -->
  <text x="200" y="200" font-family="Arial, sans-serif" font-size="16" font-weight="bold" fill="white" text-anchor="middle">DATA SCIENCE</text>
  
  <defs>
    <linearGradient id="paint0_linear" x1="0" y1="0" x2="400" y2="225" gradientUnits="userSpaceOnUse">
      <stop stop-color="#0ea5e9"/>
      <stop offset="1" stop-color="#0369a1"/>
    </linearGradient>
  </defs>
</svg>
