<svg width="600" height="400" viewBox="0 0 600 400" fill="none" xmlns="http://www.w3.org/2000/svg">
  <rect width="600" height="400" rx="8" fill="#f8fafc"/>
  
  <!-- Background Elements -->
  <path d="M0 320C50 280 100 300 150 250C200 200 250 220 300 180C350 140 400 160 450 120C500 80 550 100 600 60" stroke="#7c3aed" stroke-opacity="0.1" stroke-width="40"/>
  <path d="M0 350C50 310 100 330 150 280C200 230 250 250 300 210C350 170 400 190 450 150C500 110 550 130 600 90" stroke="#14b8a6" stroke-opacity="0.1" stroke-width="20"/>
  
  <!-- Path Nodes -->
  <circle cx="100" cy="200" r="30" fill="#7c3aed"/>
  <circle cx="250" cy="150" r="30" fill="#7c3aed"/>
  <circle cx="400" cy="250" r="30" fill="#7c3aed"/>
  <circle cx="500" cy="150" r="30" fill="#7c3aed"/>
  
  <!-- Path Lines -->
  <path d="M100 200L250 150" stroke="#7c3aed" stroke-width="4" stroke-dasharray="8 8"/>
  <path d="M250 150L400 250" stroke="#7c3aed" stroke-width="4" stroke-dasharray="8 8"/>
  <path d="M400 250L500 150" stroke="#7c3aed" stroke-width="4" stroke-dasharray="8 8"/>
  
  <!-- Icon in Nodes -->
  <text x="100" y="205" font-family="Arial, sans-serif" font-size="14" fill="white" text-anchor="middle">1</text>
  <text x="250" y="155" font-family="Arial, sans-serif" font-size="14" fill="white" text-anchor="middle">2</text>
  <text x="400" y="255" font-family="Arial, sans-serif" font-size="14" fill="white" text-anchor="middle">3</text>
  <text x="500" y="155" font-family="Arial, sans-serif" font-size="14" fill="white" text-anchor="middle">4</text>
  
  <!-- AI Elements -->
  <circle cx="300" cy="70" r="40" fill="#14b8a6" fill-opacity="0.2"/>
  <circle cx="300" cy="70" r="25" fill="#14b8a6"/>
  <text x="300" y="75" font-family="Arial, sans-serif" font-size="14" fill="white" text-anchor="middle">AI</text>
  
  <!-- AI Connection Lines -->
  <path d="M300 95L250 130" stroke="#14b8a6" stroke-width="2" stroke-dasharray="4 4"/>
  <path d="M300 95L400 230" stroke="#14b8a6" stroke-width="2" stroke-dasharray="4 4"/>
  <path d="M300 95L500 130" stroke="#14b8a6" stroke-width="2" stroke-dasharray="4 4"/>
</svg>
