<svg xmlns="http://www.w3.org/2000/svg" width="80" height="80" viewBox="0 0 80 80">
  <defs>
    <linearGradient id="trophy-grad" x1="0%" y1="0%" x2="100%" y2="100%">
      <stop offset="0%" style="stop-color:#FF9F1C;stop-opacity:1" />
      <stop offset="100%" style="stop-color:#FFBF69;stop-opacity:1" />
    </linearGradient>
  </defs>
  <circle cx="40" cy="40" r="36" fill="#f5f7ff" />
  
  <!-- Trophy Base -->
  <rect x="35" y="55" width="10" height="5" fill="#FFD700" />
  <rect x="30" y="60" width="20" height="5" fill="#FFD700" />
  
  <!-- Trophy Cup -->
  <path d="M30,20 L50,20 L50,45 C50,50 45,55 40,55 C35,55 30,50 30,45 Z" fill="url(#trophy-grad)" />
  
  <!-- Trophy Handles -->
  <path d="M50,25 C55,25 60,30 60,35 C60,38 58,40 55,40 L50,40" fill="none" stroke="#FFD700" stroke-width="3" />
  <path d="M30,25 C25,25 20,30 20,35 C20,38 22,40 25,40 L30,40" fill="none" stroke="#FFD700" stroke-width="3" />
  
  <!-- Star on top -->
  <path d="M40,10 L42,17 L49,17 L43,21 L45,28 L40,24 L35,28 L37,21 L31,17 L38,17 Z" fill="#FFD700" />
</svg>
