<svg xmlns="http://www.w3.org/2000/svg" viewBox="0 0 800 600" width="800" height="600">
  <defs>
    <linearGradient id="grad1" x1="0%" y1="0%" x2="100%" y2="0%">
      <stop offset="0%" style="stop-color:#4361ee;stop-opacity:1" />
      <stop offset="100%" style="stop-color:#2ec4b6;stop-opacity:1" />
    </linearGradient>
    <linearGradient id="grad2" x1="0%" y1="0%" x2="100%" y2="0%">
      <stop offset="0%" style="stop-color:#ff9f1c;stop-opacity:1" />
      <stop offset="100%" style="stop-color:#ffbf69;stop-opacity:1" />
    </linearGradient>
  </defs>
  
  <!-- Background Elements -->
  <circle cx="700" cy="100" r="80" fill="#f5f7ff" />
  <circle cx="600" cy="550" r="120" fill="#f5f7ff" />
  <circle cx="200" cy="500" r="40" fill="#f5f7ff" />
  
  <!-- Abstract Wave -->
  <path d="M0,400 C100,350 200,450 300,400 C400,350 500,450 600,400 C700,350 800,450 900,400 L900,600 L0,600 Z" fill="#f5f7ff" />
  
  <!-- Main Illustration Elements -->
  <rect x="350" y="150" width="250" height="300" rx="20" fill="white" stroke="#e0e0e0" stroke-width="2" />
  <rect x="370" y="180" width="210" height="140" rx="10" fill="url(#grad1)" />
  <rect x="370" y="340" width="100" height="20" rx="5" fill="#e0e0e0" />
  <rect x="370" y="370" width="210" height="10" rx="5" fill="#e0e0e0" />
  <rect x="370" y="390" width="180" height="10" rx="5" fill="#e0e0e0" />
  <rect x="370" y="410" width="160" height="10" rx="5" fill="#e0e0e0" />
  
  <!-- Person Silhouette -->
  <circle cx="270" cy="280" r="70" fill="url(#grad2)" />
  <path d="M270,210 C290,210 310,220 320,240 C330,260 330,290 320,310 C310,330 290,340 270,340 C250,340 230,330 220,310 C210,290 210,260 220,240 C230,220 250,210 270,210 Z" fill="#2d3748" />
  <rect x="260" y="350" width="20" height="80" rx="10" fill="#2d3748" />
  
  <!-- AI Elements -->
  <circle cx="500" cy="100" r="30" fill="#4361ee" opacity="0.7" />
  <path d="M500,70 L500,130 M470,100 L530,100" stroke="white" stroke-width="4" />
  
  <!-- Connection Lines -->
  <path d="M320,280 Q380,250 440,250" stroke="#4361ee" stroke-width="2" stroke-dasharray="5,5" />
  <path d="M500,130 Q480,180 440,250" stroke="#4361ee" stroke-width="2" stroke-dasharray="5,5" />
  
  <!-- Small Decorative Elements -->
  <circle cx="350" cy="80" r="15" fill="#ff9f1c" />
  <circle cx="200" cy="150" r="10" fill="#2ec4b6" />
  <circle cx="600" cy="300" r="12" fill="#4361ee" />
  <circle cx="150" cy="350" r="8" fill="#ff9f1c" />
  <circle cx="650" cy="200" r="10" fill="#2ec4b6" />
</svg>
