<svg width="1440" height="200" viewBox="0 0 1440 200" fill="none" xmlns="http://www.w3.org/2000/svg">
  <path fill-rule="evenodd" clip-rule="evenodd" d="M0 72L48 66.7C96 61.3 192 50.7 288 56C384 61.3 480 82.7 576 93.3C672 104 768 104 864 98.7C960 93.3 1056 82.7 1152 77.3C1248 72 1344 72 1392 72H1440V200H1392C1344 200 1248 200 1152 200C1056 200 960 200 864 200C768 200 672 200 576 200C480 200 384 200 288 200C192 200 96 200 48 200H0V72Z" fill="#4361ee" fill-opacity="0.1"/>
  <path fill-rule="evenodd" clip-rule="evenodd" d="M0 108L48 103.3C96 98.7 192 89.3 288 93.3C384 97.3 480 114.7 576 124C672 133.3 768 134.7 864 129.3C960 124 1056 112 1152 106.7C1248 101.3 1344 102.7 1392 103.3H1440V200H1392C1344 200 1248 200 1152 200C1056 200 960 200 864 200C768 200 672 200 576 200C480 200 384 200 288 200C192 200 96 200 48 200H0V108Z" fill="#2ec4b6" fill-opacity="0.08"/>
</svg>
